<?xml version="1.0" encoding="UTF-8" standalone="no"?>
<!DOCTYPE svg PUBLIC "-//W3C//DTD SVG 1.1//EN"
 "http://www.w3.org/Graphics/SVG/1.1/DTD/svg11.dtd">
<!-- Generated by graphviz version 2.40.1 (20161225.0304)
 -->
<!-- Title: dependencies Pages: 1 -->
<svg width="1246pt" height="284pt"
 viewBox="0.00 0.00 1246.00 284.00" xmlns="http://www.w3.org/2000/svg" xmlns:xlink="http://www.w3.org/1999/xlink">
<g id="graph0" class="graph" transform="scale(1 1) rotate(0) translate(4 280)">
<title>dependencies</title>
<polygon fill="#ffffff" stroke="transparent" points="-4,4 -4,-280 1242,-280 1242,4 -4,4"/>
<text text-anchor="start" x="598.0091" y="-42.4" font-family="sans-serif" font-weight="bold" font-size="14.00" fill="#000000">Legend</text>
<polygon fill="#ffffb3" stroke="transparent" points="385,-10 385,-30 405,-30 405,-10 385,-10"/>
<text text-anchor="start" x="408.629" y="-15.4" font-family="sans-serif" font-size="14.00" fill="#000000"> &#160;Declarations</text>
<polygon fill="#8dd3c7" stroke="transparent" points="498,-10 498,-30 518,-30 518,-10 498,-10"/>
<text text-anchor="start" x="521.7251" y="-15.4" font-family="sans-serif" font-size="14.00" fill="#000000"> &#160;Module</text>
<polygon fill="#80b1d3" stroke="transparent" points="584,-10 584,-30 604,-30 604,-10 584,-10"/>
<text text-anchor="start" x="607.7812" y="-15.4" font-family="sans-serif" font-size="14.00" fill="#000000"> &#160;Bootstrap</text>
<polygon fill="#fdb462" stroke="transparent" points="681,-10 681,-30 701,-30 701,-10 681,-10"/>
<text text-anchor="start" x="704.6732" y="-15.4" font-family="sans-serif" font-size="14.00" fill="#000000"> &#160;Providers</text>
<polygon fill="#fb8072" stroke="transparent" points="777,-10 777,-30 797,-30 797,-10 777,-10"/>
<text text-anchor="start" x="800.7258" y="-15.4" font-family="sans-serif" font-size="14.00" fill="#000000"> &#160;Exports</text>
<g id="clust1" class="cluster">
<title>cluster_AppModule</title>
<polygon fill="none" stroke="#000000" stroke-dasharray="1,5" points="8,-70 8,-268 1230,-268 1230,-70 8,-70"/>
</g>
<g id="clust2" class="cluster">
<title>cluster_AppModule_declarations</title>
<polygon fill="none" stroke="#000000" points="364,-78 364,-130 1222,-130 1222,-78 364,-78"/>
</g>
<g id="clust9" class="cluster">
<title>cluster_AppModule_imports</title>
<polygon fill="none" stroke="#000000" points="212,-78 212,-130 356,-130 356,-78 212,-78"/>
</g>
<g id="clust11" class="cluster">
<title>cluster_AppModule_bootstrap</title>
<polygon fill="none" stroke="#000000" points="591,-208 591,-260 715,-260 715,-208 591,-208"/>
</g>
<g id="clust12" class="cluster">
<title>cluster_AppModule_providers</title>
<polygon fill="none" stroke="#000000" points="16,-78 16,-130 204,-130 204,-78 16,-78"/>
</g>
<!-- AppComponent -->
<g id="node1" class="node">
<title>AppComponent</title>
<polygon fill="#ffffb3" stroke="#000000" points="1213.9399,-122 1108.0601,-122 1108.0601,-86 1213.9399,-86 1213.9399,-122"/>
<text text-anchor="middle" x="1161" y="-99.8" font-family="Times,serif" font-size="14.00" fill="#000000">AppComponent</text>
</g>
<!-- AppModule -->
<g id="node7" class="node">
<title>AppModule</title>
<polygon fill="#8dd3c7" stroke="#000000" points="694.6571,-187 691.6571,-191 670.6571,-191 667.6571,-187 611.3429,-187 611.3429,-151 694.6571,-151 694.6571,-187"/>
<text text-anchor="middle" x="653" y="-164.8" font-family="Times,serif" font-size="14.00" fill="#000000">AppModule</text>
</g>
<!-- AppComponent&#45;&gt;AppModule -->
<g id="edge1" class="edge">
<title>AppComponent&#45;&gt;AppModule</title>
<path fill="none" stroke="#000000" d="M1161,-122.2921C1161,-144.2057 1161,-178 1161,-178 1161,-178 705.004,-178 705.004,-178"/>
<polygon fill="#000000" stroke="#000000" points="705.004,-174.5001 695.004,-178 705.0039,-181.5001 705.004,-174.5001"/>
</g>
<!-- ErrorDialogComponent -->
<g id="node2" class="node">
<title>ErrorDialogComponent</title>
<polygon fill="#ffffb3" stroke="#000000" points="1090.4692,-122 941.5308,-122 941.5308,-86 1090.4692,-86 1090.4692,-122"/>
<text text-anchor="middle" x="1016" y="-99.8" font-family="Times,serif" font-size="14.00" fill="#000000">ErrorDialogComponent</text>
</g>
<!-- ErrorDialogComponent&#45;&gt;AppModule -->
<g id="edge2" class="edge">
<title>ErrorDialogComponent&#45;&gt;AppModule</title>
<path fill="none" stroke="#000000" d="M1016,-122.1061C1016,-141.3391 1016,-169 1016,-169 1016,-169 704.9953,-169 704.9953,-169"/>
<polygon fill="#000000" stroke="#000000" points="704.9954,-165.5001 694.9953,-169 704.9953,-172.5001 704.9954,-165.5001"/>
</g>
<!-- HeaderComponent -->
<g id="node3" class="node">
<title>HeaderComponent</title>
<polygon fill="#ffffb3" stroke="#000000" points="923.7437,-122 802.2563,-122 802.2563,-86 923.7437,-86 923.7437,-122"/>
<text text-anchor="middle" x="863" y="-99.8" font-family="Times,serif" font-size="14.00" fill="#000000">HeaderComponent</text>
</g>
<!-- HeaderComponent&#45;&gt;AppModule -->
<g id="edge3" class="edge">
<title>HeaderComponent&#45;&gt;AppModule</title>
<path fill="none" stroke="#000000" d="M863,-122.027C863,-138.3976 863,-160 863,-160 863,-160 704.7403,-160 704.7403,-160"/>
<polygon fill="#000000" stroke="#000000" points="704.7404,-156.5001 694.7403,-160 704.7403,-163.5001 704.7404,-156.5001"/>
</g>
<!-- HomeComponent -->
<g id="node4" class="node">
<title>HomeComponent</title>
<polygon fill="#ffffb3" stroke="#000000" points="783.5451,-122 668.4549,-122 668.4549,-86 783.5451,-86 783.5451,-122"/>
<text text-anchor="middle" x="726" y="-99.8" font-family="Times,serif" font-size="14.00" fill="#000000">HomeComponent</text>
</g>
<!-- HomeComponent&#45;&gt;AppModule -->
<g id="edge4" class="edge">
<title>HomeComponent&#45;&gt;AppModule</title>
<path fill="none" stroke="#000000" d="M681.5281,-122.1061C681.5281,-122.1061 681.5281,-140.991 681.5281,-140.991"/>
<polygon fill="#000000" stroke="#000000" points="678.0281,-140.9909 681.5281,-150.991 685.0281,-140.991 678.0281,-140.9909"/>
</g>
<!-- NotFoundComponent -->
<g id="node5" class="node">
<title>NotFoundComponent</title>
<polygon fill="#ffffb3" stroke="#000000" points="650.1122,-122 511.8878,-122 511.8878,-86 650.1122,-86 650.1122,-122"/>
<text text-anchor="middle" x="581" y="-99.8" font-family="Times,serif" font-size="14.00" fill="#000000">NotFoundComponent</text>
</g>
<!-- NotFoundComponent&#45;&gt;AppModule -->
<g id="edge5" class="edge">
<title>NotFoundComponent&#45;&gt;AppModule</title>
<path fill="none" stroke="#000000" d="M630.6139,-122.1061C630.6139,-122.1061 630.6139,-140.991 630.6139,-140.991"/>
<polygon fill="#000000" stroke="#000000" points="627.114,-140.9909 630.6139,-150.991 634.114,-140.991 627.114,-140.9909"/>
</g>
<!-- WidgetComponent -->
<g id="node6" class="node">
<title>WidgetComponent</title>
<polygon fill="#ffffb3" stroke="#000000" points="494.0436,-122 371.9564,-122 371.9564,-86 494.0436,-86 494.0436,-122"/>
<text text-anchor="middle" x="433" y="-99.8" font-family="Times,serif" font-size="14.00" fill="#000000">WidgetComponent</text>
</g>
<!-- WidgetComponent&#45;&gt;AppModule -->
<g id="edge6" class="edge">
<title>WidgetComponent&#45;&gt;AppModule</title>
<path fill="none" stroke="#000000" d="M433,-122.027C433,-138.3976 433,-160 433,-160 433,-160 601.1018,-160 601.1018,-160"/>
<polygon fill="#000000" stroke="#000000" points="601.1019,-163.5001 611.1018,-160 601.1018,-156.5001 601.1019,-163.5001"/>
</g>
<!-- AppComponent  -->
<g id="node9" class="node">
<title>AppComponent </title>
<polygon fill="#80b1d3" stroke="#000000" points="707.439,-252 598.561,-252 598.561,-216 707.439,-216 707.439,-252"/>
<text text-anchor="middle" x="653" y="-229.8" font-family="Times,serif" font-size="14.00" fill="#000000">AppComponent </text>
</g>
<!-- AppModule&#45;&gt;AppComponent  -->
<g id="edge8" class="edge">
<title>AppModule&#45;&gt;AppComponent </title>
<path fill="none" stroke="#000000" stroke-dasharray="1,5" d="M653,-187.1061C653,-187.1061 653,-205.991 653,-205.991"/>
<polygon fill="#000000" stroke="#000000" points="649.5001,-205.9909 653,-215.991 656.5001,-205.991 649.5001,-205.9909"/>
</g>
<!-- AppRoutingModule -->
<g id="node8" class="node">
<title>AppRoutingModule</title>
<polygon fill="#8dd3c7" stroke="#000000" points="348.2744,-122 345.2744,-126 324.2744,-126 321.2744,-122 219.7256,-122 219.7256,-86 348.2744,-86 348.2744,-122"/>
<text text-anchor="middle" x="284" y="-99.8" font-family="Times,serif" font-size="14.00" fill="#000000">AppRoutingModule</text>
</g>
<!-- AppRoutingModule&#45;&gt;AppModule -->
<g id="edge7" class="edge">
<title>AppRoutingModule&#45;&gt;AppModule</title>
<path fill="none" stroke="#000000" d="M284,-122.1061C284,-141.3391 284,-169 284,-169 284,-169 601.0303,-169 601.0303,-169"/>
<polygon fill="#000000" stroke="#000000" points="601.0303,-172.5001 611.0303,-169 601.0302,-165.5001 601.0303,-172.5001"/>
</g>
<!-- WeatherInterceptor -->
<g id="node10" class="node">
<title>WeatherInterceptor</title>
<ellipse fill="#fdb462" stroke="#000000" cx="110" cy="-104" rx="86.1923" ry="18"/>
<text text-anchor="middle" x="110" y="-99.8" font-family="Times,serif" font-size="14.00" fill="#000000">WeatherInterceptor</text>
</g>
<!-- WeatherInterceptor&#45;&gt;AppModule -->
<g id="edge9" class="edge">
<title>WeatherInterceptor&#45;&gt;AppModule</title>
<path fill="none" stroke="#000000" d="M110,-122.2921C110,-144.2057 110,-178 110,-178 110,-178 601.2933,-178 601.2933,-178"/>
<polygon fill="#000000" stroke="#000000" points="601.2934,-181.5001 611.2933,-178 601.2933,-174.5001 601.2934,-181.5001"/>
</g>
</g>
</svg>
